<?xml version="1.0" encoding="UTF-8" standalone="no"?>
<!DOCTYPE svg PUBLIC "-//W3C//DTD SVG 1.1//EN" "http://www.w3.org/Graphics/SVG/1.1/DTD/svg11.dtd">
<svg width="100%" height="100%" viewBox="0 0 1060 1060" version="1.1" xmlns="http://www.w3.org/2000/svg" xmlns:xlink="http://www.w3.org/1999/xlink" xml:space="preserve" xmlns:serif="http://www.serif.com/" style="fill-rule:evenodd;clip-rule:evenodd;stroke-linecap:round;stroke-linejoin:round;stroke-miterlimit:1.5;">
    <g transform="matrix(1,0,0,1,-1047.34043,-728.641005)">
        <g transform="matrix(1,0,0,1,54.215998,24.920452)">
            <rect x="1029.583" y="740.179" width="986.696" height="986.696" style="fill:rgb(150,150,150);stroke:rgb(90,124,0);stroke-width:72.92px;"/>
            <g>
                <g transform="matrix(1.154045,0,0,1.154045,-3.88122,-269.814131)">
                    <g transform="matrix(287.463419,0,0,287.463419,1106.743773,1644.969015)">
                        <path d="M0.179,-0L0.122,-0.173L0.04,-0.412L0.009,-0.497C0.034,-0.496 0.057,-0.496 0.078,-0.496C0.097,-0.496 0.118,-0.496 0.14,-0.497L0.253,-0.131L0.382,-0.497C0.407,-0.496 0.43,-0.496 0.452,-0.496C0.476,-0.496 0.498,-0.496 0.519,-0.497L0.603,-0.174C0.604,-0.169 0.607,-0.155 0.613,-0.131L0.625,-0.163C0.625,-0.164 0.628,-0.171 0.634,-0.186L0.709,-0.378L0.754,-0.497C0.779,-0.496 0.8,-0.496 0.818,-0.496C0.833,-0.496 0.855,-0.496 0.885,-0.497L0.75,-0.19C0.722,-0.124 0.695,-0.061 0.67,-0C0.643,-0.001 0.621,-0.001 0.605,-0.001C0.589,-0.001 0.564,-0.001 0.531,-0L0.442,-0.355C0.437,-0.343 0.427,-0.316 0.413,-0.274L0.313,-0C0.286,-0.001 0.265,-0.001 0.25,-0.001C0.235,-0.001 0.211,-0.001 0.179,-0Z" style="fill-rule:nonzero;"/>
                    </g>
                    <g transform="matrix(287.463419,0,0,287.463419,1356.730271,1644.969015)">
                        <path d="M0.492,-0.111C0.488,-0.092 0.482,-0.057 0.474,-0.007C0.439,0 0.409,0.005 0.385,0.008C0.361,0.01 0.337,0.012 0.312,0.012C0.27,0.012 0.232,0.007 0.198,-0.001C0.164,-0.009 0.135,-0.025 0.109,-0.048C0.084,-0.07 0.065,-0.098 0.053,-0.131C0.041,-0.164 0.035,-0.198 0.035,-0.234C0.035,-0.274 0.042,-0.313 0.056,-0.35C0.07,-0.388 0.09,-0.419 0.115,-0.443C0.14,-0.467 0.169,-0.484 0.201,-0.493C0.233,-0.503 0.267,-0.508 0.302,-0.508C0.335,-0.508 0.367,-0.504 0.397,-0.496C0.427,-0.488 0.452,-0.474 0.472,-0.455C0.493,-0.436 0.508,-0.414 0.519,-0.387C0.53,-0.361 0.536,-0.331 0.536,-0.299C0.536,-0.283 0.534,-0.268 0.531,-0.251L0.173,-0.251C0.172,-0.239 0.172,-0.229 0.172,-0.222C0.172,-0.2 0.176,-0.18 0.183,-0.162C0.191,-0.144 0.201,-0.128 0.216,-0.116C0.23,-0.103 0.247,-0.094 0.267,-0.088C0.287,-0.082 0.306,-0.079 0.326,-0.079C0.348,-0.079 0.372,-0.081 0.399,-0.086C0.425,-0.091 0.456,-0.099 0.492,-0.111ZM0.177,-0.308L0.405,-0.308C0.405,-0.323 0.405,-0.335 0.404,-0.342C0.403,-0.35 0.401,-0.358 0.397,-0.368C0.394,-0.377 0.389,-0.386 0.383,-0.393C0.377,-0.4 0.371,-0.406 0.363,-0.411C0.355,-0.416 0.346,-0.42 0.336,-0.422C0.325,-0.425 0.314,-0.426 0.303,-0.426C0.289,-0.426 0.276,-0.424 0.263,-0.42C0.25,-0.416 0.238,-0.41 0.228,-0.401C0.217,-0.393 0.208,-0.384 0.201,-0.374C0.195,-0.364 0.19,-0.355 0.187,-0.345C0.183,-0.336 0.18,-0.324 0.177,-0.308Z" style="fill-rule:nonzero;"/>
                    </g>
                    <g transform="matrix(287.463419,0,0,287.463419,1517.866992,1644.969015)">
                        <path d="M0.049,-0C0.055,-0.062 0.062,-0.169 0.069,-0.323C0.076,-0.476 0.079,-0.59 0.08,-0.667C0.109,-0.666 0.134,-0.666 0.155,-0.666C0.176,-0.666 0.199,-0.666 0.223,-0.667C0.217,-0.621 0.213,-0.563 0.209,-0.493C0.241,-0.499 0.267,-0.503 0.286,-0.505C0.305,-0.507 0.323,-0.508 0.342,-0.508C0.393,-0.508 0.436,-0.5 0.471,-0.484C0.506,-0.468 0.534,-0.441 0.555,-0.404C0.576,-0.367 0.587,-0.322 0.587,-0.269C0.587,-0.231 0.582,-0.195 0.571,-0.16C0.56,-0.125 0.545,-0.094 0.524,-0.067C0.503,-0.04 0.477,-0.02 0.447,-0.007C0.417,0.005 0.385,0.012 0.35,0.012C0.333,0.012 0.317,0.01 0.302,0.007C0.288,0.004 0.275,-0 0.262,-0.006C0.25,-0.012 0.239,-0.019 0.23,-0.027C0.22,-0.035 0.212,-0.042 0.206,-0.05C0.199,-0.058 0.192,-0.069 0.184,-0.083L0.182,-0C0.155,-0.001 0.134,-0.001 0.119,-0.001C0.107,-0.001 0.084,-0.001 0.049,-0ZM0.2,-0.393L0.196,-0.31C0.195,-0.292 0.195,-0.274 0.195,-0.257C0.195,-0.217 0.199,-0.185 0.207,-0.162C0.216,-0.139 0.23,-0.121 0.25,-0.108C0.269,-0.095 0.292,-0.089 0.316,-0.089C0.343,-0.089 0.367,-0.096 0.387,-0.111C0.407,-0.125 0.422,-0.146 0.432,-0.174C0.443,-0.202 0.448,-0.232 0.448,-0.263C0.448,-0.307 0.436,-0.343 0.413,-0.37C0.389,-0.397 0.354,-0.411 0.308,-0.411C0.293,-0.411 0.277,-0.409 0.261,-0.407C0.244,-0.405 0.224,-0.4 0.2,-0.393Z" style="fill-rule:nonzero;"/>
                    </g>
                </g>
                <g transform="matrix(1,0,0,1,65.119396,20.251476)">
                    <g transform="matrix(1,0,0,1,1444.851801,1308.529675)">
                        <g transform="matrix(737.248785,0,0,737.248785,0,0)">
                            <path d="M0.346,-0.642C0.307,-0.638 0.281,-0.63 0.268,-0.617C0.253,-0.602 0.246,-0.573 0.246,-0.532L0.246,-0.14C0.246,-0.051 0.225,0.01 0.182,0.044C0.16,0.063 0.132,0.072 0.099,0.072C0.069,0.072 0.047,0.063 0.032,0.045C0.022,0.033 0.018,0.019 0.018,0.004C0.02,-0.025 0.032,-0.038 0.052,-0.035C0.072,-0.033 0.087,-0.019 0.096,0.006C0.105,0.03 0.114,0.042 0.122,0.042C0.162,0.043 0.182,0.014 0.182,-0.047L0.182,-0.532C0.182,-0.572 0.175,-0.599 0.161,-0.614C0.147,-0.629 0.12,-0.638 0.08,-0.642L0.08,-0.661L0.346,-0.661L0.346,-0.642Z" style="fill-rule:nonzero;"/>
                        </g>
                    </g>
                    <g transform="matrix(2.56467,0,0,2.56467,-2578.168814,-962.698765)">
                        <g transform="matrix(103.976993,0,0,103.976993,1648.851171,900.162918)">
                            <path d="M0.178,-0.643M0.559,-0.116L0.518,0.06L0.009,0.06L0.009,0.04C0.044,0.037 0.068,0.03 0.08,0.021C0.097,0.006 0.105,-0.021 0.105,-0.061L0.105,-0.538C0.105,-0.58 0.097,-0.607 0.08,-0.621C0.069,-0.63 0.045,-0.636 0.009,-0.64L0.009,-0.659L0.51,-0.659L0.513,-0.513L0.492,-0.513C0.484,-0.563 0.472,-0.594 0.455,-0.606C0.438,-0.619 0.402,-0.626 0.347,-0.626L0.206,-0.626C0.188,-0.626 0.179,-0.625 0.177,-0.624C0.17,-0.621 0.167,-0.609 0.167,-0.589L0.167,-0.338L0.327,-0.338C0.369,-0.338 0.396,-0.345 0.41,-0.359C0.421,-0.371 0.43,-0.397 0.436,-0.438L0.456,-0.438L0.456,-0.195L0.436,-0.195C0.43,-0.24 0.421,-0.268 0.408,-0.279C0.395,-0.292 0.368,-0.298 0.327,-0.298L0.167,-0.298L0.167,-0.026C0.167,-0.003 0.175,0.012 0.192,0.019C0.209,0.024 0.254,0.026 0.329,0.026C0.39,0.026 0.434,0.017 0.462,-0.003C0.49,-0.022 0.515,-0.06 0.538,-0.116L0.559,-0.116Z" style="fill-rule:nonzero;"/>
                        </g>
                        <g transform="matrix(103.976993,0,0,103.976993,1708.55671,900.162918)">
                            <path d="M0.294,0.06L0.015,0.06L0.015,0.04C0.058,0.038 0.087,0.03 0.102,0.016C0.117,0.001 0.125,-0.025 0.125,-0.064L0.125,-0.533C0.125,-0.574 0.117,-0.601 0.101,-0.616C0.086,-0.629 0.058,-0.636 0.015,-0.639L0.015,-0.658L0.294,-0.658L0.294,-0.639C0.254,-0.637 0.227,-0.63 0.212,-0.619C0.192,-0.604 0.183,-0.575 0.183,-0.533L0.183,-0.064C0.183,-0.023 0.192,0.005 0.212,0.02C0.227,0.032 0.254,0.039 0.294,0.04L0.294,0.06Z" style="fill-rule:nonzero;"/>
                        </g>
                    </g>
                </g>
            </g>
        </g>
    </g>
</svg>
